# xmcd
#
# Track frame offsets: 
#        150
#        13660
#        28368
#        38305
#        52115
#        64515
#        78509
#        89249
#        100993
#        114175
#        128174
#        140436
#        151725
#        164770
#        176913
#        191328
#        201253
#        214416
#        225143
#        236842
#        248708
#        261390
#        271086
#        282479
#        296387
#
# Disc length: 4099 seconds
#
# Revision: 2
# Processed by: cddbd v1.5.2PL0 Copyright (c) Steve Scherf et al.
# Submitted via: ExactAudioCopyFreeDBPlugin 1.0
#
DISCID=6c100119
DTITLE=Various Artist - The Best of Doo Wop [Real Gone Music]
DYEAR=2017
DGENRE=Rhythm and Blues
TTITLE0=The Harptones - A Sunday Kind of Love
TTITLE1=The Flamingos - Golden Teardrops
TTITLE2=The Crows - Gee
TTITLE3=The Orioles - Crying in the Chapel
TTITLE4=The Prisonaires - Just Walkin' in the Rain
TTITLE5=The Vocaleers - Is it a Dream
TTITLE6=The Swallows - Nobody's Lovin' Me
TTITLE7=The Spaniels - Baby it's You
TTITLE8=The Flamingos - Dream of a Lifetime
TTITLE9=The Harptones - I'll Never Tell
TTITLE10=The Clovers - Lovey Dovey
TTITLE11=Clyde McPhatter and The Drifters - Such a Night
TTITLE12=The Cadillacs - Gloria
TTITLE13=The Spaniels - Goodnite, Sweetheart, Goodnite
TTITLE14=The Moonglows - Sincerely
TTITLE15=The Penguins - Hey Señorita
TTITLE16=The Penguins - Earth Angel
TTITLE17=The Chords - Sh-Boom
TTITLE18=The Charms - Hearts of Stone
TTITLE19=The Eagles (1950's doo-wop group) - Tryin' to Get to You
TTITLE20=The Royals - Work with Me Annie
TTITLE21=The Five Keys - Ling Ting Tong
TTITLE22=The Spiders - I'm Slippin' In
TTITLE23=The Revileers - A Thousand Stars
TTITLE24=The Rainbows - Mary Lee
EXTD=
EXTT0=
EXTT1=
EXTT2=
EXTT3=
EXTT4=
EXTT5=
EXTT6=
EXTT7=
EXTT8=
EXTT9=
EXTT10=
EXTT11=
EXTT12=
EXTT13=
EXTT14=
EXTT15=
EXTT16=
EXTT17=
EXTT18=
EXTT19=
EXTT20=
EXTT21=
EXTT22=
EXTT23=
EXTT24=
PLAYORDER=
